inDegrees=yes
name=ik_S41_A12_T02
DataType=double
version=3
OpenSimVersion=4.3-2021-08-27-4bc7ad9
endheader
time	pelvis_tilt	pelvis_list	pelvis_rotation	pelvis_tx	pelvis_ty	pelvis_tz	hip_flexion_r	hip_adduction_r	hip_rotation_r	knee_angle_r	knee_angle_r_beta	ankle_angle_r	subtalar_angle_r	mtp_angle_r	hip_flexion_l	hip_adduction_l	hip_rotation_l	knee_angle_l	knee_angle_l_beta	ankle_angle_l	subtalar_angle_l	mtp_angle_l	lumbar_extension	lumbar_bending	lumbar_rotation	arm_flex_r	arm_add_r	arm_rot_r	elbow_flex_r	pro_sup_r	wrist_flex_r	wrist_dev_r	arm_flex_l	arm_add_l	arm_rot_l	elbow_flex_l	pro_sup_l	wrist_flex_l	wrist_dev_l
0	0	0	0	0	0.9399999999999999	0	0	0	0	0	0	0	0	0	0	0	0	0	0	0	0	0	0	0	0	0	0	0	0	89.99999999963507	0	0	0	0	0	0	89.99999999869995	0	0
0.02	0.8515341654402089	1.17918327401037	12.70801856264276	0	0.9399999999999999	0	1.793439478876629	-0.844991024257152	-0.6047367327003336	2.842308030073387	0.0496076334806546	0	0	0	1.793439478876629	-0.844991024257152	-0.6047367327003336	2.842308030073387	0.0496076334806546	0	0	0	0.9899821698515193	1.399031072823919	5.042927242809085	2.872731093292368	-7.096388820251985	-6.196783960484116	-6.697590493050081	110.7577009445924	0	0	10.80597593805859	-2.81370380594134	-13.55489411212544	4.778788088146568	118.7672116586793	0	0
0.04	0.7852520020043695	1.150512932998961	12.6629545883927	0	0.9399999999999999	0	1.804838538588276	-0.8509598786846426	-0.6085979293102525	2.859469094193462	0.04990715055269578	0	0	0	1.804838538588276	-0.8509598786846426	-0.6085979293102525	2.859469094193462	0.04990715055269578	0	0	0	0.9191360501438901	1.385446848659896	5.034778607343415	2.92512941063214	-7.103694987059867	-6.268630029157742	-6.653683694845113	110.8147030218279	0	0	10.93438719850903	-2.818820326450975	-13.51797801765601	4.783714646831029	118.7344485846644	0	0
0.06	0.741669443764878	1.12460342557852	12.63067566831934	0	0.9399999999999999	0	1.814345263499429	-0.8559297433629606	-0.6118176994638074	2.873763258593749	0.05015663078530215	0	0	0	1.814345263499429	-0.8559297433629606	-0.6118176994638074	2.873763258593749	0.05015663078530215	0	0	0	0.8710047426769819	1.369602280043287	5.029965742436888	3.018851548981914	-7.085553228632694	-6.228509640635255	-6.674328613119641	110.8153211003663	0	0	11.01131931455109	-2.805924598970608	-13.44527574709615	4.786906799580898	118.7042200863887	0	0
0.08	0.6881406932143431	1.100359852823509	12.5915655783928	0	0.9399999999999999	0	1.827367180538239	-0.8627468812212661	-0.6162294104436318	2.893331530028316	0.0504981615507593	0	0	0	1.827367180538239	-0.8627468812212661	-0.6162294104436318	2.893331530028316	0.0504981615507593	0	0	0	0.8136038412724774	1.357471419800575	5.020824149185914	3.099096567702878	-7.079231560049469	-6.256964609571976	-6.711758514636997	110.8113426972764	0	0	11.12036178481456	-2.786433932989563	-13.41631691436195	4.769298228849996	118.6060507665383	0	0
0.1	0.6138314603748897	1.058308741788711	12.54768797986379	0	0.9399999999999999	0	1.842999915382106	-0.8709167509463897	-0.6215250395152107	2.916786288180758	0.05090752430577838	0	0	0	1.842999915382106	-0.8709167509463897	-0.6215250395152107	2.916786288180758	0.05090752430577838	0	0	0	0.7319103599692961	1.332600720848998	5.018469046460756	3.225665742921941	-7.066382176034315	-6.292960006346959	-6.702906411602143	110.8584716095477	0	0	11.28804041484187	-2.752542599373477	-13.41432180892432	4.777855379907054	118.377590556607	0	0
0.12	0.5929221129145335	1.050223629484308	12.51399113838049	0	0.9399999999999999	0	1.877123833913616	-0.8887673746939846	-0.6330891225752614	2.967891054157443	0.05179947073553273	0	0	0	1.877123833913616	-0.8887673746939846	-0.6330891225752614	2.967891054157443	0.05179947073553273	0	0	0	0.7093474384219179	1.329519614276284	5.039282107682839	3.213521950946857	-7.074323014221489	-6.3894233309537	-6.717977767395977	110.8995993681733	0	0	11.38851887666951	-2.699661768385956	-13.35861258270911	4.704807738710568	118.0247348387112	0	0
0.14	0.5321502174525066	1.02459155079619	12.45752566589133	0	0.9399999999999999	0	1.896538589055165	-0.8988335475831556	-0.6396614079956657	2.996840858292579	0.0523047401354983	0	0	0	1.896538589055165	-0.8988335475831556	-0.6396614079956657	2.996840858292579	0.0523047401354983	0	0	0	0.6443587925370655	1.317666799466773	5.042448471743222	3.31667542446775	-7.080145741041163	-6.432424689003336	-6.717293348655581	110.9379298787321	0	0	11.51612309887502	-2.725339723963885	-13.41835713477856	4.775617449835687	117.65315513144	0	0
0.16	0.4945669040383742	0.9889189004314635	12.37426318505529	0	0.9399999999999999	0	1.917567918149369	-0.909806980448117	-0.6467884200487164	3.028201631762701	0.05285208888852404	0	0	0	1.917567918149369	-0.909806980448117	-0.6467884200487164	3.028201631762701	0.05285208888852404	0	0	0	0.6001758922918838	1.290674355204984	5.028995110656046	3.380997646440703	-7.050843071523394	-6.435627768220627	-6.725476040425025	110.9803150036702	0	0	11.70756751456457	-2.733940889168097	-13.46070828673002	4.703668884216667	117.3201270142538	0	0
0.18	0.4773081312708812	0.9854425143640009	12.3530925645642	0	0.9399999999999999	0	1.93776362532986	-0.9201335134415317	-0.653613424362074	3.058117037009148	0.05337421120714291	0	0	0	1.93776362532986	-0.9201335134415317	-0.653613424362074	3.058117037009148	0.05337421120714291	0	0	0	0.5831743160964739	1.29034771275192	4.990007333593415	3.405645917237327	-7.075607176204787	-6.47047976902499	-6.784434501081229	110.9893168578736	0	0	11.74300729674773	-2.742174726538978	-13.52871782721014	4.848906140343922	116.547210284652	0	0
0.2	0.4642102745895562	0.9670128646610932	12.32444921588901	0	0.9399999999999999	0	1.967071145495083	-0.935362910535964	-0.6635440758667932	3.101618264689769	0.05413345085882946	0	0	0	1.967071145495083	-0.935362910535964	-0.6635440758667932	3.101618264689769	0.05413345085882946	0	0	0	0.5661238478953544	1.274939431626423	5.003165287318596	3.410888297637812	-7.070808453154562	-6.566395567214891	-6.79486820679332	111.0404260339669	0	0	12.12930645658933	-2.704156079982185	-13.36979048254268	4.730027358221172	115.2413251127109	0	0
0.22	0.4459677990517084	0.9561182509817517	12.37510486181088	0	0.9399999999999999	0	2.00160456510359	-0.9533527328158123	-0.6752534104361944	3.152784777926767	0.05502647498158034	0	0	0	2.00160456510359	-0.9533527328158123	-0.6752534104361944	3.152784777926767	0.05502647498158034	0	0	0	0.5471369147574019	1.266639626955927	4.948515684211976	3.455494626797773	-7.095480631405737	-6.636953183475661	-6.776449371635141	111.1145524601578	0	0	12.97580849389029	-2.847789390017458	-13.16897852402701	4.326066431270484	113.3430139616659	0	0
0.24	0.3898734137595583	0.9281471779431997	12.62056486686547	0	0.9399999999999999	0	2.036488041739377	-0.9715327088007856	-0.6870861758217577	3.204337589416276	0.05592624128073222	0	0	0	2.036488041739377	-0.9715327088007856	-0.6870861758217577	3.204337589416276	0.05592624128073222	0	0	0	0.4907451366037659	1.24557867474429	4.708540275186962	3.576467483924946	-7.10474568394354	-6.711927211579923	-6.769128646502178	111.16664079883	0	0	13.82857736511908	-3.162465925287846	-13.34838450646963	4.657543187231113	109.9929947365421	0	0
